# xmcd
#
# Track frame offsets:
#	150
#	20920
#	52271
#	71741
#	125699
#	145382
#	164041
#	182158
#	209740
#	256480
#	271935
#
# Disc length: 3756 seconds
#
# Revision: 1
# Processed by: cddbd v1.4PL0 Copyright (c) Steve Scherf et al.
# Submitted via: audiograbber 1.81.02
#
DISCID=bf0eaa0b
DTITLE=Big Seve's Blues Attack - Where do you get your blues
DYEAR=1900
DGENRE=Blues
TTITLE0=Take out some insurance
TTITLE1=Thrill is gone
TTITLE2=Must be the devil
TTITLE3=Blueskiller
TTITLE4=Help me
TTITLE5=What do you want
TTITLE6=The two harponists
TTITLE7=Teardrops from my eyes
TTITLE8=Blow your blues away
TTITLE9=Let me do my music
TTITLE10=Where do you get your blues?
EXTD=
EXTT0=
EXTT1=
EXTT2=
EXTT3=
EXTT4=
EXTT5=
EXTT6=
EXTT7=
EXTT8=
EXTT9=
EXTT10=
PLAYORDER=
